<?xml version="1.0" encoding="utf-8"?>
<!-- Generator: Adobe Illustrator 25.2.1, SVG Export Plug-In . SVG Version: 6.00 Build 0)  -->
<svg version="1.1" id="Capa_1" xmlns="http://www.w3.org/2000/svg" xmlns:xlink="http://www.w3.org/1999/xlink" x="0px" y="0px"
	 viewBox="0 0 1080 1080" style="enable-background:new 0 0 1080 1080;" xml:space="preserve">
<style type="text/css">
	.st0{fill:#2E4A6C;}
	.st1{fill:#9CCACC;}
</style>
<g>
	<path class="st0" d="M1060.1,276.7l-219.3-8.2c-6.2-0.2-12.1-2.2-17.1-5.8c-3.5-2.6-7.2-6-9.9-10.7c-2.5-4.4-3.9-9.3-4.1-14.3
		l-8.2-219.5c0-1.2-1.8-1.2-1.8,0l-8.2,221.5l0-0.3c-1.5,11.7-8.1,19.1-14.4,23.6c-4.9,3.5-10.8,5.4-16.8,5.6l-219,8.2
		c-1.2,0-1.2,1.8,0,1.8l220.2,8.2c9.6,0.4,18.6,5,24.2,12.7c2.2,3.1,4.1,6.8,5.2,11.2c0.5,1.9,0.7,3.9,0.8,5.9l8.2,220.4
		c0,1.2,1.8,1.2,1.8,0l8.2-220.7c0.2-5.8,1.9-11.4,5.2-16.2c0.2-0.3,0.4-0.5,0.5-0.8c5.6-7.7,14.6-12.3,24.1-12.6l220.5-8.2
		C1061.3,278.5,1061.3,276.8,1060.1,276.7z"/>
	<polygon class="st1" points="880.8,358.7 799.9,283.5 718.8,358.6 794,277.7 718.9,196.6 799.9,271.9 880.9,196.7 805.7,277.7 	"/>
</g>
<g>
	<path class="st0" d="M557.1,784.7l-219.3-8.2c-6.2-0.2-12.1-2.2-17.1-5.8c-3.5-2.6-7.2-6-9.9-10.7c-2.5-4.4-3.9-9.3-4.1-14.3
		l-8.2-219.5c0-1.2-1.8-1.2-1.8,0l-8.2,221.5l0-0.3c-1.5,11.7-8.1,19.1-14.4,23.6c-4.9,3.5-10.8,5.4-16.8,5.6l-219,8.2
		c-1.2,0-1.2,1.8,0,1.8l220.2,8.2c9.6,0.4,18.6,5,24.2,12.7c2.2,3.1,4.1,6.8,5.2,11.2c0.5,1.9,0.7,3.9,0.8,5.9l8.2,220.4
		c0,1.2,1.8,1.2,1.8,0l8.2-220.7c0.2-5.8,1.9-11.4,5.2-16.2c0.2-0.3,0.4-0.5,0.5-0.8c5.6-7.7,14.6-12.3,24.1-12.6l220.5-8.2
		C558.3,786.5,558.3,784.8,557.1,784.7z"/>
	<polygon class="st1" points="377.8,866.7 296.9,791.5 215.8,866.6 291,785.7 215.9,704.6 296.9,779.9 377.9,704.7 302.7,785.7 	"/>
</g>
<g>
	<path class="st0" d="M262.7,17.1c15.7,0,30.2,2.4,43.5,7.1c13.3,4.7,24.6,9.8,34.1,15.2c11.2,6.3,21.1,13.5,29.7,21.6
		c3.6-5.8,7.5-11.1,11.8-15.9c4.3-4.7,8.2-8.7,11.8-11.8c4.5-3.6,9-6.7,13.5-9.4H424V152h-27c-6.3-21.6-15.1-41.2-26.3-58.7
		c-9.4-14.8-22-28.4-37.8-40.8C317.1,40.1,298,34,275.5,34c-13.5,0-26.8,3.7-39.8,11.1c-13.1,7.4-24.6,20-34.8,37.8
		c-10.1,17.8-18.2,41.4-24.3,70.9c-6.1,29.5-9.1,66-9.1,109.6c0,44.1,3.1,80.8,9.4,110c6.3,29.2,15.1,52.7,26.3,70.5
		c11.2,17.8,24.5,30.4,39.8,37.8c15.3,7.4,31.7,11.1,49.3,11.1c16.2,0,31.7-3.5,46.6-10.5c14.8-7,28.1-16.4,39.8-28.3
		c11.7-11.9,21-25.5,28-40.8c7-15.3,10.5-31.5,10.5-48.6h16.9c0,19.3-3.9,37.8-11.8,55.3c-7.9,17.5-18.8,33-32.7,46.2
		c-13.9,13.3-30.4,23.8-49.3,31.7c-18.9,7.9-39.4,11.8-61.4,11.8c-35.5,0-67.5-5.4-95.8-16.2c-28.3-10.8-52.4-26.7-72.2-47.6
		c-19.8-20.9-35-46.7-45.5-77.3C54.8,338.1,49.5,303,49.5,263.4c0-39.6,5.2-74.7,15.5-105.3c10.3-30.6,25-56.3,43.9-77.3
		c18.9-20.9,41.4-36.8,67.5-47.6C202.4,22.5,231.2,17.1,262.7,17.1z"/>
</g>
<g>
	<path class="st0" d="M980,617.6l-54-20.2v-10.1h128.2v10.1l-54,20.2v452.1H980L666.2,701.9v327.3l54,20.2v10.1H592v-10.1l54-20.2
		V610.8l-47.2-13.5v-10.1h70.8c13.5,0,25.2,1.5,35.1,4.4c9.9,2.9,18.6,6.7,26,11.5c7.4,4.7,13.8,9.9,19.2,15.5
		c5.4,5.6,10.1,10.9,14.2,15.9l215.9,253V617.6z"/>
</g>
<g>
</g>
<g>
</g>
<g>
</g>
<g>
</g>
<g>
</g>
<g>
</g>
<g>
</g>
<g>
</g>
<g>
</g>
<g>
</g>
<g>
</g>
<g>
</g>
<g>
</g>
<g>
</g>
<g>
</g>
</svg>
