<?xml version="1.0" encoding="utf-8"?>
<!-- Generator: Adobe Illustrator 25.2.1, SVG Export Plug-In . SVG Version: 6.00 Build 0)  -->
<svg version="1.1" id="Capa_1" xmlns="http://www.w3.org/2000/svg" xmlns:xlink="http://www.w3.org/1999/xlink" x="0px" y="0px"
	 viewBox="0 0 30 32" style="enable-background:new 0 0 30 32;" xml:space="preserve">
<style type="text/css">
	.st0{fill:url(#SVGID_1_);}
</style>
<linearGradient id="SVGID_1_" gradientUnits="userSpaceOnUse" x1="0.631" y1="16.0004" x2="29.369" y2="16.0004">
	<stop  offset="5.327789e-09" style="stop-color:#FF0000"/>
	<stop  offset="9.609524e-02" style="stop-color:#A3005C"/>
	<stop  offset="0.1938" style="stop-color:#4C00B3"/>
	<stop  offset="0.2628" style="stop-color:#1500EA"/>
	<stop  offset="0.2961" style="stop-color:#0000FF"/>
	<stop  offset="0.3528" style="stop-color:#2818DA"/>
	<stop  offset="0.5139" style="stop-color:#965A76"/>
	<stop  offset="0.6252" style="stop-color:#DC8337"/>
	<stop  offset="0.6769" style="stop-color:#F7931E"/>
	<stop  offset="1" style="stop-color:#009245"/>
</linearGradient>
<path class="st0" d="M29.4,8.6C29.4,8.6,29.4,8.6,29.4,8.6C29.4,8.6,29.4,8.6,29.4,8.6C29.4,8.6,29.4,8.6,29.4,8.6
	c0-0.1,0-0.1,0-0.1c0,0,0,0,0,0c0,0,0-0.1,0-0.1c0,0,0,0,0,0c0,0,0,0,0,0c0,0,0,0,0,0c0,0,0,0,0,0c0,0,0,0,0,0c0,0,0,0,0,0
	c0,0,0,0,0,0c0,0,0,0,0,0c0,0,0,0,0,0l0,0c0,0,0,0,0,0L15.3,0.4c0,0,0,0,0,0c0,0,0,0,0,0c-0.1-0.1-0.3-0.1-0.4,0l-14,7.8
	c0,0,0,0,0,0l0,0c0,0,0,0,0,0c0,0,0,0,0,0c0,0,0,0,0,0c0,0,0,0,0,0c0,0,0,0,0,0c0,0,0,0,0,0c0,0,0,0,0,0c0,0,0,0,0,0c0,0,0,0,0,0
	c0,0,0,0.1,0,0.1c0,0,0,0,0,0c0,0,0,0,0,0c0,0,0,0,0,0c0,0,0,0,0,0c0,0,0,0,0,0c0,0,0,0,0,0c0,0,0,0,0,0V13c0,0.1,0,0.1,0,0.2
	c0,0.1,0,0.1,0,0.2c0,0.1,0,0.1,0,0.2v4.3c0,0.1,0,0.1,0,0.2c0,0,0,0,0,0.1c0,0,0,0,0,0c0,0,0,0,0,0c-0.1,0.1-0.1,0.2-0.1,0.3v4.3
	c0,0.1,0,0.1,0,0.2c0,0.2,0,0.4,0.2,0.5l14,8.2l0,0c0.1,0,0.1,0.1,0.2,0.1c0.1,0,0.1,0,0.2-0.1l13.8-8.2c0.2-0.1,0.2-0.3,0.2-0.5
	c0,0,0-0.1,0-0.1v-4.4c0.1-0.1,0.1-0.2,0-0.3c0,0,0-0.1,0-0.1v-4.4c0,0,0-0.1,0-0.1c0-0.1,0-0.2,0-0.3c0,0,0-0.1,0-0.1V8.6
	C29.4,8.6,29.4,8.6,29.4,8.6C29.4,8.6,29.4,8.6,29.4,8.6z M28.5,17.9l-3.8,2.3v-3.8l3.8-2.2L28.5,17.9
	C28.5,17.9,28.5,17.9,28.5,17.9z M16.9,20.9l2.4-1.4v3.8c0,0,0,0,0,0.1l-3.8,2.2v-3.8L16.9,20.9L16.9,20.9z M10.6,19.4l4.1,2.3v3.9
	l-4.1-2.4c0-0.1,0-0.1,0-0.2V19.4z M6,16.8l3.7,2.1v3.8L6,20.5c0,0,0,0,0,0V16.8z M20.1,22.9V19l3.7-2.1v3.8c0,0,0,0,0,0L20.1,22.9
	L20.1,22.9z M5.2,16.3V20l-3.7-2.1c0,0,0,0,0,0c0,0,0,0,0,0v-3.6L5.2,16.3z M28.5,13L28.5,13C28.5,13.1,28.5,13.1,28.5,13l-3.8,2.3
	v-3.8l3.8-2.2L28.5,13C28.5,13,28.5,13,28.5,13z M23.9,15.8L20.1,18v-3.9l3.7-2.1L23.9,15.8C23.9,15.8,23.9,15.8,23.9,15.8z
	 M19.3,18.5l-2.8,1.7l-1,0.5v-3.9l3.8-2.2L19.3,18.5C19.3,18.5,19.3,18.5,19.3,18.5z M14.7,20.7l-4.1-2.4c0-0.1,0-0.1,0-0.2v-3.6
	l4.1,2.3V20.7z M9.8,17.8L6,15.6c0,0,0,0,0,0v-3.7L9.8,14V17.8z M5.2,11.4v3.7L1.5,13c0,0,0,0,0,0V9.3L5.2,11.4z M1.5,22.7v-3.6
	l3.7,2.1v3.7L1.5,22.7C1.5,22.7,1.5,22.7,1.5,22.7z M6,25.3v-3.7l3.7,2.1v3.8L6,25.3C6,25.4,6,25.3,6,25.3z M10.5,27.9v-3.6l4.1,2.3
	v3.9L10.5,28C10.5,28,10.5,27.9,10.5,27.9z M15.4,26.6l3.8-2.2v3.8c0,0,0,0,0,0.1l-3.8,2.2V26.6z M20.1,23.9l0.5-0.3l3.2-1.8v3.8
	c0,0,0,0,0,0l-3.8,2.2V23.9z M24.7,21.3l3.8-2.2v3.7c0,0,0,0,0,0.1l-3.8,2.3V21.3z M15.1,16.1L2,8.6l13.1-7.3l13,7.3L15.1,16.1z"/>
</svg>
