<?xml version="1.0" standalone="no"?><svg xmlns="http://www.w3.org/2000/svg" viewBox="0 0 1440 320"><path fill="#9b0f28" fill-opacity="1" d="M0,288L40,245.3C80,203,160,117,240,96C320,75,400,117,480,144C560,171,640,181,720,160C800,139,880,85,960,90.7C1040,96,1120,160,1200,202.7C1280,245,1360,267,1400,277.3L1440,288L1440,320L1400,320C1360,320,1280,320,1200,320C1120,320,1040,320,960,320C880,320,800,320,720,320C640,320,560,320,480,320C400,320,320,320,240,320C160,320,80,320,40,320L0,320Z"></path></svg>