<?xml version="1.0" standalone="no"?><svg xmlns="http://www.w3.org/2000/svg" viewBox="0 0 1440 320"><path fill="#9b0f28" fill-opacity="1" d="M0,128L24,149.3C48,171,96,213,144,208C192,203,240,149,288,149.3C336,149,384,203,432,208C480,213,528,171,576,144C624,117,672,107,720,133.3C768,160,816,224,864,240C912,256,960,224,1008,229.3C1056,235,1104,277,1152,261.3C1200,245,1248,171,1296,144C1344,117,1392,139,1416,149.3L1440,160L1440,320L1416,320C1392,320,1344,320,1296,320C1248,320,1200,320,1152,320C1104,320,1056,320,1008,320C960,320,912,320,864,320C816,320,768,320,720,320C672,320,624,320,576,320C528,320,480,320,432,320C384,320,336,320,288,320C240,320,192,320,144,320C96,320,48,320,24,320L0,320Z"></path></svg>